<svg width="17" height="17" viewBox="0 0 17 17" fill="none" xmlns="http://www.w3.org/2000/svg">
<g clip-path="url(#clip0)">
<path d="M12.9832 8.34906H14.169C14.4371 8.34906 14.6552 8.13095 14.6552 7.86287V6.67705C14.6552 6.40897 14.4371 6.19086 14.169 6.19086H12.9832C12.7151 6.19086 12.497 6.40897 12.497 6.67705V7.86287C12.497 8.13095 12.7151 8.34906 12.9832 8.34906ZM12.995 6.6889H14.1571V7.85101H12.995V6.6889ZM12.9832 11.5034H14.169C14.4371 11.5034 14.6552 11.2852 14.6552 11.0172V9.83135C14.6552 9.56326 14.4371 9.34515 14.169 9.34515H12.9832C12.7151 9.34515 12.497 9.56326 12.497 9.83135V11.0172C12.497 11.2852 12.7151 11.5034 12.9832 11.5034ZM12.995 9.8432H14.1571V11.0053H12.995V9.8432ZM9.59923 8.34906H10.785C11.0531 8.34906 11.2712 8.13095 11.2712 7.86287V6.67705C11.2712 6.40897 11.0531 6.19086 10.785 6.19086H9.59923C9.33115 6.19086 9.11304 6.40897 9.11304 6.67705V7.86287C9.11304 8.13095 9.33115 8.34906 9.59923 8.34906ZM9.61109 6.6889H10.7732V7.85101H9.61109V6.6889ZM4.01719 12.3516H2.83137C2.56329 12.3516 2.34518 12.5697 2.34518 12.8378V14.0236C2.34518 14.2917 2.56329 14.5098 2.83137 14.5098H4.01719C4.28527 14.5098 4.50338 14.2917 4.50338 14.0236V12.8378C4.50338 12.5697 4.28527 12.3516 4.01719 12.3516ZM4.00534 14.0117H2.84323V12.8496H4.00534V14.0117ZM4.01719 6.19086H2.83137C2.56329 6.19086 2.34518 6.40897 2.34518 6.67705V7.86287C2.34518 8.13095 2.56329 8.34906 2.83137 8.34906H4.01719C4.28527 8.34906 4.50338 8.13095 4.50338 7.86287V6.67705C4.50338 6.40893 4.28527 6.19086 4.01719 6.19086ZM4.00534 7.85101H2.84323V6.6889H4.00534V7.85101ZM9.59923 11.4294H10.785C11.0531 11.4294 11.2712 11.2113 11.2712 10.9432V9.7574C11.2712 9.48932 11.0531 9.27121 10.785 9.27121H9.59923C9.33115 9.27121 9.11304 9.48932 9.11304 9.7574V10.9432C9.11304 11.2113 9.33115 11.4294 9.59923 11.4294ZM9.61109 9.76926H10.7732V10.9314H9.61109V9.76926ZM14.9025 1.138H13.8378V0.757264C13.8378 0.339701 13.4981 0 13.0805 0H12.9662C12.5487 0 12.209 0.339701 12.209 0.757264V1.138H4.79139V0.757264C4.79139 0.339701 4.45169 0 4.03412 0H3.91977C3.50221 0 3.16251 0.339701 3.16251 0.757264V1.138H2.09785C1.41038 1.138 0.851074 1.69731 0.851074 2.38478V15.7549C0.851074 16.4415 1.40962 17 2.09619 17H14.9042C15.5908 17 16.1493 16.4415 16.1493 15.7549V2.38478C16.1493 1.69731 15.59 1.138 14.9025 1.138ZM12.707 0.757264C12.707 0.614324 12.8233 0.498047 12.9662 0.498047H13.0806C13.2235 0.498047 13.3398 0.614324 13.3398 0.757264V1.138H12.707V0.757264ZM3.66059 0.757264C3.66059 0.614324 3.77687 0.498047 3.91981 0.498047H4.03416C4.1771 0.498047 4.29337 0.614324 4.29337 0.757264V1.138H3.66062V0.757264H3.66059ZM15.6513 15.7549C15.6513 16.1668 15.3161 16.502 14.9042 16.502H2.09616C1.68421 16.502 1.34909 16.1668 1.34909 15.7549V15.7533C1.55774 15.9105 1.81709 16.0039 2.09785 16.0039H12.1944C12.5274 16.0039 12.8405 15.8742 13.076 15.6387L15.6513 13.0634V15.7549ZM12.8219 15.1885C12.8414 15.1079 12.852 15.0238 12.852 14.9374V13.2751C12.852 12.9616 13.107 12.7066 13.4205 12.7066H15.0828C15.1693 12.7066 15.2533 12.696 15.3339 12.6765L12.8219 15.1885ZM15.6513 4.69671H5.04041C4.90288 4.69671 4.79139 4.80821 4.79139 4.94574C4.79139 5.08327 4.90288 5.19476 5.04041 5.19476H15.6513V11.6401C15.6513 11.9536 15.3962 12.2086 15.0828 12.2086H13.4205C12.8324 12.2086 12.354 12.687 12.354 13.2751V14.9374C12.354 15.2509 12.0989 15.5059 11.7855 15.5059H2.09785C1.685 15.5059 1.34912 15.17 1.34912 14.7571V5.19476H4.04432C4.18185 5.19476 4.29334 5.08327 4.29334 4.94574C4.29334 4.80821 4.18185 4.69671 4.04432 4.69671H1.34909V2.38478C1.34909 1.97193 1.68497 1.63605 2.09782 1.63605H3.16251V2.36825C3.16251 2.78581 3.50221 3.12551 3.91977 3.12551C4.0573 3.12551 4.1688 3.01401 4.1688 2.87649C4.1688 2.73896 4.0573 2.62746 3.91977 2.62746C3.77683 2.62746 3.66056 2.51119 3.66056 2.36825V1.63605H12.209V2.36825C12.209 2.78581 12.5487 3.12551 12.9662 3.12551C13.1038 3.12551 13.2153 3.01401 13.2153 2.87649C13.2153 2.73896 13.1038 2.62746 12.9662 2.62746C12.8233 2.62746 12.707 2.51119 12.707 2.36825V1.63605H14.9025C15.3154 1.63605 15.6513 1.97193 15.6513 2.38478V4.69671ZM4.01719 9.27121H2.83137C2.56329 9.27121 2.34518 9.48932 2.34518 9.7574V10.9432C2.34518 11.2113 2.56329 11.4294 2.83137 11.4294H4.01719C4.28527 11.4294 4.50338 11.2113 4.50338 10.9432V9.7574C4.50338 9.48929 4.28527 9.27121 4.01719 9.27121ZM4.00534 10.9314H2.84323V9.76926H4.00534V10.9314ZM6.2153 8.34906H7.40112C7.6692 8.34906 7.88731 8.13095 7.88731 7.86287V6.67705C7.88731 6.40897 7.6692 6.19086 7.40112 6.19086H6.2153C5.94722 6.19086 5.72911 6.40897 5.72911 6.67705V7.86287C5.72911 8.13095 5.94722 8.34906 6.2153 8.34906ZM6.22716 6.6889H7.38927V7.85101H6.22716V6.6889ZM9.61079 14.0117C9.60461 13.8797 9.49561 13.7745 9.36203 13.7745C9.2245 13.7745 9.11301 13.886 9.11301 14.0236C9.11301 14.2917 9.33112 14.5098 9.5992 14.5098H10.785C11.0531 14.5098 11.2712 14.2917 11.2712 14.0236V12.8378C11.2712 12.5697 11.0531 12.3516 10.785 12.3516H9.5992C9.33112 12.3516 9.11301 12.5697 9.11301 12.8378V13.1797C9.11301 13.3173 9.2245 13.4288 9.36203 13.4288C9.49956 13.4288 9.61105 13.3173 9.61105 13.1797V12.8496H10.7732V14.0117H9.61079ZM6.2153 11.4294H7.40112C7.6692 11.4294 7.88731 11.2113 7.88731 10.9432V9.7574C7.88731 9.48932 7.6692 9.27121 7.40112 9.27121H6.2153C5.94722 9.27121 5.72911 9.48932 5.72911 9.7574V10.9432C5.72911 11.2113 5.94722 11.4294 6.2153 11.4294ZM6.22716 9.76926H7.38927V10.9314H6.22716V9.76926ZM6.2153 14.5098H7.40112C7.6692 14.5098 7.88731 14.2917 7.88731 14.0236V12.8378C7.88731 12.5697 7.6692 12.3516 7.40112 12.3516H6.2153C5.94722 12.3516 5.72911 12.5697 5.72911 12.8378V14.0236C5.72911 14.2917 5.94722 14.5098 6.2153 14.5098ZM6.22716 12.8496H7.38927V14.0117H6.22716V12.8496Z" fill="white"/>
</g>
<defs>
<clipPath id="clip0">
<rect width="17" height="17" fill="white"/>
</clipPath>
</defs>
</svg>
