<svg width="15" height="15" viewBox="0 0 15 15" fill="none" xmlns="http://www.w3.org/2000/svg">
<g clip-path="url(#clip0)">
<path d="M7.50024 0C3.35803 0 0.000488281 2.87897 0.000488281 6.43106C0.000488281 9.36018 2.28649 11.8271 5.41063 12.6038L7.50024 15L9.58986 12.6038C12.714 11.8271 15 9.36016 15 6.43106C15 2.87897 11.6425 0 7.50024 0ZM9.13798 11.5459L8.1063 12.8354L7.50022 13.5933L5.86245 11.5459C3.03039 10.9473 0.934673 8.84174 0.934673 6.3284C0.934673 3.34957 3.87411 0.934675 7.50024 0.934675C11.1264 0.934675 14.0658 3.3496 14.0658 6.3284C14.0663 8.84174 11.9701 10.9473 9.13798 11.5459Z" fill="white"/>
</g>
<defs>
<clipPath id="clip0">
<rect width="15" height="15" fill="white"/>
</clipPath>
</defs>
</svg>
