<svg width="24" height="24" viewBox="0 0 24 24" fill="none" xmlns="http://www.w3.org/2000/svg">
<g clip-path="url(#clip0)">
<path d="M23.2434 11.6561C23.2434 5.23694 18.0409 0.0344238 11.6217 0.0344238C5.20252 0.0344238 0 5.23694 0 11.6561C0 18.0753 5.20252 23.2778 11.6217 23.2778C11.6898 23.2778 11.7579 23.2778 11.826 23.2733V14.2301H9.32913V11.3202H11.826V9.17742C11.826 6.69419 13.3422 5.34136 15.5576 5.34136C16.6199 5.34136 17.5324 5.41853 17.7957 5.45485V8.05157H16.2704C15.0673 8.05157 14.8313 8.62358 14.8313 9.46342V11.3156H17.714L17.3372 14.2256H14.8313V22.8284C19.6888 21.4347 23.2434 16.963 23.2434 11.6561Z" fill="#051945"/>
</g>
<defs>
<clipPath id="clip0">
<rect width="23.2434" height="23.2434" fill="white" transform="translate(0 0.0344238)"/>
</clipPath>
</defs>
</svg>
