<svg width="24" height="24" viewBox="0 0 24 24" fill="none" xmlns="http://www.w3.org/2000/svg">
<g clip-path="url(#clip0)">
<path d="M14.6027 11.6561C14.6027 12.8847 13.6068 13.8806 12.3783 13.8806C11.1497 13.8806 10.1538 12.8847 10.1538 11.6561C10.1538 10.4275 11.1497 9.43164 12.3783 9.43164C13.6068 9.43164 14.6027 10.4275 14.6027 11.6561Z" fill="#051945"/>
<path d="M17.5805 7.72047C17.4736 7.43071 17.303 7.16844 17.0813 6.95315C16.8661 6.73149 16.604 6.56089 16.314 6.45396C16.0789 6.36264 15.7256 6.25393 15.075 6.22432C14.3712 6.19222 14.1601 6.1853 12.3783 6.1853C10.5963 6.1853 10.3853 6.19204 9.6816 6.22414C9.03097 6.25393 8.67754 6.36264 8.44257 6.45396C8.15264 6.56089 7.89036 6.73149 7.67526 6.95315C7.45359 7.16844 7.28299 7.43053 7.17589 7.72047C7.08456 7.95562 6.97585 8.30904 6.94624 8.95968C6.91414 9.66333 6.90723 9.87436 6.90723 11.6564C6.90723 13.4382 6.91414 13.6492 6.94624 14.3531C6.97585 15.0037 7.08456 15.357 7.17589 15.5921C7.28299 15.882 7.45341 16.1441 7.67508 16.3594C7.89036 16.5811 8.15246 16.7517 8.4424 16.8586C8.67754 16.9501 9.03097 17.0588 9.6816 17.0884C10.3853 17.1205 10.5961 17.1273 12.3781 17.1273C14.1603 17.1273 14.3713 17.1205 15.0748 17.0884C15.7255 17.0588 16.0789 16.9501 16.314 16.8586C16.896 16.6341 17.356 16.1741 17.5805 15.5921C17.6719 15.357 17.7806 15.0037 17.8104 14.3531C17.8425 13.6492 17.8492 13.4382 17.8492 11.6564C17.8492 9.87436 17.8425 9.66333 17.8104 8.95968C17.7807 8.30904 17.672 7.95562 17.5805 7.72047ZM12.3783 15.083C10.4856 15.083 8.95134 13.5489 8.95134 11.6562C8.95134 9.76353 10.4856 8.22942 12.3783 8.22942C14.2708 8.22942 15.8051 9.76353 15.8051 11.6562C15.8051 13.5489 14.2708 15.083 12.3783 15.083ZM15.9406 8.89477C15.4983 8.89477 15.1397 8.5362 15.1397 8.09394C15.1397 7.65167 15.4983 7.2931 15.9406 7.2931C16.3828 7.2931 16.7414 7.65167 16.7414 8.09394C16.7412 8.5362 16.3828 8.89477 15.9406 8.89477Z" fill="#051945"/>
<path d="M12.3783 0.0344238C5.96078 0.0344238 0.756592 5.23861 0.756592 11.6561C0.756592 18.0736 5.96078 23.2778 12.3783 23.2778C18.7958 23.2778 24 18.0736 24 11.6561C24 5.23861 18.7958 0.0344238 12.3783 0.0344238ZM19.0114 14.4074C18.9791 15.1178 18.8662 15.6028 18.7013 16.0274C18.3546 16.9238 17.646 17.6324 16.7495 17.9791C16.3252 18.144 15.84 18.2568 15.1298 18.2892C14.4181 18.3217 14.1908 18.3295 12.3785 18.3295C10.5659 18.3295 10.3388 18.3217 9.62696 18.2892C8.91674 18.2568 8.43156 18.144 8.0072 17.9791C7.56174 17.8115 7.15849 17.5489 6.8251 17.2093C6.48568 16.8761 6.22305 16.4726 6.05547 16.0274C5.89056 15.603 5.77759 15.1178 5.74532 14.4076C5.71251 13.6958 5.70489 13.4685 5.70489 11.6561C5.70489 9.84377 5.71251 9.61643 5.74514 8.90479C5.77742 8.1944 5.8902 7.70939 6.05512 7.28485C6.2227 6.83957 6.48551 6.43614 6.8251 6.10293C7.15831 5.76334 7.56174 5.50071 8.00702 5.33313C8.43156 5.16821 8.91656 5.05543 9.62696 5.02297C10.3386 4.99052 10.5659 4.98272 12.3783 4.98272C14.1906 4.98272 14.418 4.99052 15.1296 5.02315C15.84 5.05543 16.325 5.16821 16.7495 5.33295C17.1948 5.50053 17.5982 5.76334 17.9316 6.10293C18.271 6.43632 18.5339 6.83957 18.7013 7.28485C18.8664 7.70939 18.9791 8.1944 19.0116 8.90479C19.044 9.61643 19.0517 9.84377 19.0517 11.6561C19.0517 13.4685 19.044 13.6958 19.0114 14.4074Z" fill="#051945"/>
</g>
<defs>
<clipPath id="clip0">
<rect width="23.2434" height="23.2434" fill="white" transform="translate(0.756592 0.0344238)"/>
</clipPath>
</defs>
</svg>
