<svg width="14" height="14" viewBox="0 0 14 14" fill="none" xmlns="http://www.w3.org/2000/svg">
<g clip-path="url(#clip0)">
<path d="M13.8768 2.78143L9.63086 6.99999L13.8768 11.2186C13.9535 11.0581 14.0001 10.8808 14.0001 10.6914V3.30859C14.0001 3.11918 13.9535 2.94185 13.8768 2.78143Z" fill="#051945"/>
<path d="M12.7693 2.07812H1.23029C1.04088 2.07812 0.863551 2.12469 0.703125 2.20145L6.12985 7.60083C6.60968 8.08066 7.38996 8.08066 7.86979 7.60083L13.2965 2.20145C13.1361 2.12469 12.9588 2.07812 12.7693 2.07812Z" fill="#051945"/>
<path d="M0.12332 2.78143C0.0465664 2.94185 0 3.11918 0 3.30859V10.6914C0 10.8808 0.0465664 11.0582 0.12332 11.2186L4.36923 6.99999L0.12332 2.78143Z" fill="#051945"/>
<path d="M9.0506 7.57999L8.44977 8.18081C7.65027 8.98031 6.34934 8.98031 5.54983 8.18081L4.94904 7.57999L0.703125 11.7986C0.863551 11.8753 1.04088 11.9219 1.23029 11.9219H12.7693C12.9588 11.9219 13.1361 11.8753 13.2965 11.7986L9.0506 7.57999Z" fill="#051945"/>
</g>
<defs>
<clipPath id="clip0">
<rect width="14" height="14" fill="white"/>
</clipPath>
</defs>
</svg>
