<svg width="17" height="20" viewBox="0 0 17 20" fill="none" xmlns="http://www.w3.org/2000/svg">
<g clip-path="url(#clip0)">
<path d="M16.937 9.72416C16.8032 9.5124 13.5859 4.55275 8.49996 4.55275C4.13584 4.55275 0.247027 9.48392 0.0833992 9.69413C-0.0277997 9.83735 -0.0277997 10.0476 0.0833992 10.1915C0.247027 10.4018 4.13584 15.3329 8.49996 15.3329C12.8641 15.3329 16.7529 10.4018 16.9165 10.1915C17.0192 10.0591 17.0284 9.86738 16.937 9.72416ZM8.49996 14.5629C5.00146 14.5629 1.67505 10.9362 0.830016 9.94286C1.67365 8.94878 4.99651 5.32279 8.49996 5.32279C12.5935 5.32279 15.4828 8.94416 16.1883 9.92207C15.3737 10.8838 12.0282 14.5629 8.49996 14.5629Z" fill="white"/>
<path d="M8.49987 6.86278C6.93727 6.86278 5.6665 8.24418 5.6665 9.94282C5.6665 11.6415 6.93727 13.0229 8.49987 13.0229C10.0625 13.0229 11.3332 11.6415 11.3332 9.94282C11.3332 8.24418 10.0625 6.86278 8.49987 6.86278ZM8.49987 12.2529C7.32828 12.2529 6.37484 11.2164 6.37484 9.94285C6.37484 8.66926 7.32828 7.63281 8.49987 7.63281C9.67146 7.63281 10.6249 8.66926 10.6249 9.94285C10.6249 11.2164 9.67146 12.2529 8.49987 12.2529Z" fill="white"/>
</g>
<defs>
<clipPath id="clip0">
<rect width="17" height="18.48" fill="white" transform="translate(0 0.70285)"/>
</clipPath>
</defs>
</svg>
