<svg width="24" height="24" viewBox="0 0 24 24" fill="none" xmlns="http://www.w3.org/2000/svg">
<g clip-path="url(#clip0)">
<path d="M12.0001 0.0344238C5.58184 0.0344238 0.378418 5.23761 0.378418 11.6561C0.378418 18.0746 5.58184 23.2778 12.0001 23.2778C18.4184 23.2778 23.6218 18.0746 23.6218 11.6561C23.6218 5.23761 18.4184 0.0344238 12.0001 0.0344238ZM17.8952 12.913C18.4369 13.4421 19.01 13.94 19.4962 14.5238C19.7117 14.782 19.9147 15.049 20.0693 15.3494C20.29 15.7776 20.0907 16.2472 19.7074 16.2727L17.3265 16.2722C16.7116 16.3231 16.2222 16.0751 15.8096 15.6547C15.4803 15.3196 15.1748 14.9618 14.8576 14.6153C14.728 14.4731 14.5915 14.3393 14.4288 14.2339C14.1043 14.0228 13.8222 14.0874 13.6363 14.4265C13.4468 14.7716 13.4035 15.1539 13.3854 15.5379C13.3595 16.0993 13.1902 16.2461 12.6269 16.2724C11.4232 16.3288 10.2812 16.1462 9.2197 15.5394C8.2833 15.0041 7.55854 14.2487 6.92699 13.3934C5.69717 11.726 4.75531 9.89603 3.90903 8.0135C3.71857 7.58953 3.85791 7.36268 4.32563 7.35389C5.10271 7.33891 5.87979 7.34081 6.65686 7.35317C6.97311 7.35817 7.18236 7.53912 7.30387 7.83754C7.7238 8.87071 8.2386 9.85371 8.88371 10.7654C9.05563 11.0081 9.23111 11.2502 9.48102 11.4217C9.75685 11.6109 9.96705 11.5484 10.0971 11.2405C10.1803 11.0448 10.2162 10.8355 10.2343 10.6258C10.2961 9.90745 10.3035 9.18934 10.1965 8.47385C10.1299 8.0261 9.87812 7.73696 9.4318 7.6523C9.20448 7.60927 9.23777 7.52509 9.34834 7.39526C9.54023 7.17079 9.71999 7.03193 10.0793 7.03193L12.7693 7.03145C13.1933 7.11468 13.2884 7.3049 13.346 7.73196L13.3483 10.7214C13.3433 10.8866 13.4313 11.3765 13.7281 11.4847C13.9659 11.5631 14.1228 11.3724 14.265 11.2219C14.9101 10.5373 15.3697 9.72935 15.7813 8.89306C15.963 8.52426 16.1197 8.14262 16.2719 7.76026C16.3851 7.47753 16.561 7.33843 16.8801 7.34319L19.4706 7.34628C19.5469 7.34628 19.6244 7.34699 19.7 7.36007C20.1366 7.43473 20.2562 7.62258 20.1211 8.04845C19.9086 8.71758 19.4955 9.27494 19.0918 9.83373C18.659 10.432 18.1975 11.0093 17.769 11.6102C17.3752 12.1595 17.4064 12.436 17.8952 12.913Z" fill="#051945"/>
</g>
<defs>
<clipPath id="clip0">
<rect width="23.2434" height="23.2434" fill="white" transform="translate(0.378418 0.0344238)"/>
</clipPath>
</defs>
</svg>
